inDegrees=yes
name=ik_S53_A09_T01
DataType=double
version=3
OpenSimVersion=4.3-2021-08-27-4bc7ad9
endheader
time	pelvis_tilt	pelvis_list	pelvis_rotation	pelvis_tx	pelvis_ty	pelvis_tz	hip_flexion_r	hip_adduction_r	hip_rotation_r	knee_angle_r	knee_angle_r_beta	ankle_angle_r	subtalar_angle_r	mtp_angle_r	hip_flexion_l	hip_adduction_l	hip_rotation_l	knee_angle_l	knee_angle_l_beta	ankle_angle_l	subtalar_angle_l	mtp_angle_l	lumbar_extension	lumbar_bending	lumbar_rotation	arm_flex_r	arm_add_r	arm_rot_r	elbow_flex_r	pro_sup_r	wrist_flex_r	wrist_dev_r	arm_flex_l	arm_add_l	arm_rot_l	elbow_flex_l	pro_sup_l	wrist_flex_l	wrist_dev_l
11.51999999999984	-6.767985029095269	-2.613498669833934	17.87388270066729	0	0.9399999999999999	0	43.67204876095676	-10.58825128035618	-10.57321126888731	54.24117660785131	0.9466871219627344	0	0	0	43.67204876095676	-10.58825128035618	-10.57321126888731	54.24117660785131	0.9466871219627344	0	0	0	-4.321819569945924	-1.839582026092218	3.032588156700935	50.30284015769231	7.140668582574682	17.94278242854316	52.02147868453771	109.0432548441692	0	0	58.13974054943439	-7.356751901150496	8.545113903876443	43.71929161631734	111.8763845427607	0	0
11.53999999999984	-6.769566788731217	-2.637868695106516	18.02615854260275	0	0.9399999999999999	0	43.67263007085342	-10.58735128486151	-10.57264889387146	54.24139883501274	0.9466910005583887	0	0	0	43.67263007085342	-10.58735128486151	-10.57264889387146	54.24139883501274	0.9466910005583887	0	0	0	-4.333830988635714	-1.857508940179253	2.979715519935157	50.27187339144339	7.189934262956421	18.0741509886388	53.23248007282464	108.1734067040577	0	0	58.23015176537685	-7.419615016051095	8.281380564464287	43.42960534804131	111.374329943606	0	0
11.55999999999984	-6.7753101482558	-2.670858692529081	18.34575811346223	0	0.9399999999999999	0	43.67336660361115	-10.58621008263223	-10.57193583848057	54.24167990979783	0.946695906238833	0	0	0	43.67336660361115	-10.58621008263223	-10.57193583848057	54.24167990979783	0.946695906238833	0	0	0	-4.35928679010711	-1.867235323835905	2.772884942682386	50.99271251081646	7.577120794750787	20.52145868138214	52.7455818286159	106.4048686837951	0	0	58.22950273441759	-7.398918142169802	8.069977799879103	43.08847390152597	111.3556626269584	0	0
11.57999999999984	-6.777237146187544	-2.74384358303541	18.62915269623735	0	0.9399999999999999	0	43.67394494207052	-10.58531532854464	-10.57137637987656	54.24190071601447	0.9466997600343222	0	0	0	43.67394494207052	-10.58531532854464	-10.57137637987656	54.24190071601447	0.9466997600343222	0	0	0	-4.385572482820504	-1.933751584380167	2.749912540778611	51.43862170807429	7.80751736740071	21.64691822683763	52.87419131212052	105.7785186737192	0	0	58.26326136973117	-7.258010794988287	8.077014492927958	43.13287006959244	111.5762496897522	0	0
11.59999999999984	-6.772354296968024	-2.743116310024447	18.80037323706288	0	0.9399999999999999	0	43.67458620495907	-10.58432584623938	-10.57075700942891	54.24214591043303	0.9467040394842337	0	0	0	43.67458620495907	-10.58432584623938	-10.57075700942891	54.24214591043303	0.9467040394842337	0	0	0	-4.388173839715051	-1.917751833478706	2.583135099141306	51.83604565658581	8.156538632421491	22.79791371798631	52.66650214940589	105.5831873325504	0	0	58.11255680189754	-7.275005395240163	8.015170038197446	42.19256564154903	112.8503042126613	0	0
11.61999999999984	-6.777471457191266	-2.769083307907401	19.16412534316345	0	0.9399999999999999	0	43.67501314652134	-10.58367276657525	-10.57034695644967	54.24231039614348	0.9467069103014535	0	0	0	43.67501314652134	-10.58367276657525	-10.57034695644967	54.24231039614348	0.9467069103014535	0	0	0	-4.410874015350712	-1.917810379873186	2.353479663590395	52.75193792597567	8.787747006897593	24.30187346080496	51.91047399174695	105.3181870986459	0	0	57.08867416258376	-6.955333973210729	8.563010290692674	43.02639400230046	112.7766373662635	0	0
11.63999999999984	-6.767106116931563	-2.790019104254494	19.34721051382876	0	0.9399999999999999	0	43.67563258339714	-10.58272896476441	-10.56975347822831	54.24254973770581	0.946711087599753	0	0	0	43.67563258339714	-10.58272896476441	-10.56975347822831	54.24254973770581	0.946711087599753	0	0	0	-4.415802916159777	-1.924095077116891	2.178427763920778	53.2288286013289	9.148793641661827	24.65781893857849	51.53357362350872	106.0340164648041	0	0	56.62108856956453	-6.798618009949962	8.69595159114167	42.0310216926238	109.0735900058017	0	0
11.65999999999984	-6.77456425370937	-2.865795537376054	19.66503189559379	0	0.9399999999999999	0	43.6763402583468	-10.58164086198232	-10.56907120212544	54.24282052543761	0.9467158137372469	0	0	0	43.6763402583468	-10.58164086198232	-10.56907120212544	54.24282052543761	0.9467158137372469	0	0	0	-4.445996956279893	-1.99852919048086	2.239145242284005	53.84859621100039	9.274589771556075	24.51691919140244	51.0435476433924	106.926877741155	0	0	56.72815069449916	-6.60151034944299	9.033918535259751	41.71803246446144	108.2426920127895	0	0
11.67999999999984	-6.782551137946142	-2.894883320257231	19.82404242667416	0	0.9399999999999999	0	43.6768243599742	-10.58090741768099	-10.56860889630142	54.24300812294748	0.9467190879314626	0	0	0	43.6768243599742	-10.58090741768099	-10.56860889630142	54.24300812294748	0.9467190879314626	0	0	0	-4.463084267929444	-2.023469821901806	2.24518004571076	53.89198097074321	9.181770085633607	24.38050446907642	51.14741829710059	107.9144113552658	0	0	56.78236058514023	-6.49578395373461	9.156376887105257	41.41084753561093	107.4894219766864	0	0
11.69999999999984	-6.780441197978176	-2.939508389088672	19.9980293359864	0	0.9399999999999999	0	43.67743269228949	-10.57997374485409	-10.56802289537134	54.24324089925491	0.9467231506444479	0	0	0	43.67743269228949	-10.57997374485409	-10.56802289537134	54.24324089925491	0.9467231506444479	0	0	0	-4.478947690452707	-2.062024966859106	2.204542107451644	54.43526246350242	9.461294223446439	24.35719288120696	50.58328521456305	108.509655573188	0	0	56.48096518628459	-6.353093008548133	8.615824030681923	41.55989608169151	107.7987726326311	0	0
11.71999999999984	-6.763994132359341	-2.98534552730114	20.1956132240471	0	0.9399999999999999	0	43.67805962775579	-10.57901254026487	-10.56741928044439	54.24348080349885	0.9467273377633942	0	0	0	43.67805962775579	-10.57901254026487	-10.56741928044439	54.24348080349885	0.9467273377633942	0	0	0	-4.482787974517858	-2.103982067637713	2.138005702360616	55.26545723173846	9.95489201742785	24.58783137220149	49.5451279244806	108.9454555256098	0	0	56.37320236436513	-6.194778708783758	8.344656404013287	41.21503166712522	107.335266106674	0	0
11.73999999999984	-6.767159148779972	-2.996782319038296	20.28771147139994	0	0.9399999999999999	0	43.6784127868882	-10.5784736765878	-10.5670802892101	54.2436164641076	0.9467297054876821	0	0	0	43.6784127868882	-10.5784736765878	-10.5670802892101	54.2436164641076	0.9467297054876821	0	0	0	-4.490824976138523	-2.111910895962894	2.122855993538467	55.60366307908446	10.07312877721048	24.80194017450126	49.27180276927958	108.6996986323436	0	0	56.38213947617715	-6.148821768263221	8.404214386076767	41.13083775301921	107.1194821847745	0	0
11.75999999999984	-6.76847722438624	-3.025116650944138	20.42533700558136	0	0.9399999999999999	0	43.67884533588835	-10.57781517577849	-10.56666563532448	54.24378281351111	0.9467326088324821	0	0	0	43.67884533588835	-10.57781517577849	-10.56666563532448	54.24378281351111	0.9467326088324821	0	0	0	-4.502122534992622	-2.139223431031661	2.139651038935662	55.62932808818923	9.98505403298363	24.69570430531324	49.02704894780963	109.8984745065908	0	0	56.17586608746313	-5.87077756564761	7.987813948922327	41.09448168708418	107.2197300256154	0	0
11.77999999999984	-6.75999361523205	-3.029733002784304	20.46346121844546	0	0.9399999999999999	0	43.67919424730244	-10.57728414081569	-10.56633119604191	54.24391699101508	0.9467349506717085	0	0	0	43.67919424730244	-10.57728414081569	-10.56633119604191	54.24391699101508	0.9467349506717085	0	0	0	-4.499348046051324	-2.140248809554581	2.076820558012527	55.86967075035354	10.17212256028561	25.02993677731885	48.74504231857807	109.6814588428192	0	0	56.06016585601747	-5.764087503211097	7.806503745272917	41.00636018287556	106.9177070674014	0	0
11.79999999999984	-6.762044953190244	-3.059952921848412	20.55720997221722	0	0.9399999999999999	0	43.67956077244937	-10.57673213541403	-10.56598228751501	54.24405929296671	0.9467374343092965	0	0	0	43.67956077244937	-10.57673213541403	-10.56598228751501	54.24405929296671	0.9467374343092965	0	0	0	-4.508782774688819	-2.17441323067477	2.145296286231571	55.90923562982844	10.08025276990016	24.87550408674397	48.71471816533479	109.659202212986	0	0	55.96383802456027	-5.532496245716403	7.932642780124534	40.95974614190718	106.3620775468025	0	0
11.81999999999984	-6.780859201816842	-3.121844935762581	20.77860090999996	0	0.9399999999999999	0	43.68012369441337	-10.57587589463042	-10.56544280501174	54.24427564920732	0.9467412104380524	0	0	0	43.68012369441337	-10.57587589463042	-10.56544280501174	54.24427564920732	0.9467412104380524	0	0	0	-4.549953528490643	-2.220973297143713	2.107412739570918	56.32750698648427	10.23146367496844	25.48227980979799	48.24733649589513	110.6199442004472	0	0	55.85993001392904	-5.322086523400757	8.406966681370323	41.02703331903911	105.8270891402431	0	0
11.83999999999984	-6.791112409254891	-3.1436156281359	20.84643035893724	0	0.9399999999999999	0	43.68054768388159	-10.57524604708718	-10.56504272400403	54.2444421344041	0.9467441161528919	0	0	0	43.68054768388159	-10.57524604708718	-10.56504272400403	54.2444421344041	0.9467441161528919	0	0	0	-4.567829759102608	-2.236500320735985	2.098792588646934	56.36163922434228	10.21280820287823	25.44100260459964	48.1736408966303	111.5742350465957	0	0	55.89688124580572	-5.286241396051358	8.469497709921823	40.98147172527089	105.8022017460339	0	0
11.85999999999984	-6.791788710900982	-3.163815119392376	20.75006394409351	0	0.9399999999999999	0	43.6814862137206	-10.57382991883152	-10.5641473715605	54.24480420946894	0.9467504355549128	0	0	0	43.6814862137206	-10.57382991883152	-10.5641473715605	54.24480420946894	0.9467504355549128	0	0	0	-4.570856017012364	-2.266921664223468	2.22288953588477	56.52691523586311	10.2813483304668	26.0570608867908	48.04154120619114	111.0568494350453	0	0	55.46406531735749	-5.130246123375779	9.428835726040585	41.30691786847456	104.9993417711401	0	0
